# xmcd
#
# Track frame offsets:
#   150
#   12587
#   28023
#   37511
#   51062
#   61941
#   76562
#   87619
#   100122
#   113613
#   125846
#   135867
#   149326
#   165289
#   182778
#   199202
#   213978
#   235719
#   256453
#   269315
#   283793
#   292676
#   303541
#   316481
#   334760
#   347228
#
# Disc length: 4796 seconds
#
# Revision: 0
# Processed by: cddbd v1.4PL0 Copyright (c) Steve Scherf et al.
# Submitted via: uFREEDB 1.6.0
#
DISCID=6d12ba1a
DTITLE=Red Sovine - Red Sovine
DYEAR=1900
DGENRE=Country
TTITLE0=give me forty acres
TTITLE1=phantom 309
TTITLE2=green green grass of home
TTITLE3=it'll come back
TTITLE4=women behind the man behind the wheel
TTITLE5=a mother's love is a blessing
TTITLE6=sixteen tons
TTITLE7=colorado koolaid
TTITLE8=we got married in a fever
TTITLE9=i didn't jump the fence
TTITLE10=six days on the road
TTITLE11=sad violins
TTITLE12=daddy's girl
TTITLE13=little rosa
TTITLE14=roses for momma
TTITLE15=bringing mary home
TTITLE16=teddy bear
TTITLE17=little joe
TTITLE18=the last goodby
TTITLE19=i dreamed about mama last night
TTITLE20=truck drivin' son of  a gun
TTITLE21=i know your married but i still love you
TTITLE22=roll truck roll
TTITLE23=giddy up go answer
TTITLE24=freightliner fever
TTITLE25=that mule, old rivers,  and me
EXTD=
EXTT0=
EXTT1=
EXTT2=
EXTT3=
EXTT4=
EXTT5=
EXTT6=
EXTT7=
EXTT8=
EXTT9=
EXTT10=
EXTT11=
EXTT12=
EXTT13=
EXTT14=
EXTT15=
EXTT16=
EXTT17=
EXTT18=
EXTT19=
EXTT20=
EXTT21=
EXTT22=
EXTT23=
EXTT24=
EXTT25=
PLAYORDER=
